<mxfile host="Electron" modified="2024-01-01T05:09:39.598Z" agent="Mozilla/5.0 (X11; Linux x86_64) AppleWebKit/537.36 (KHTML, like Gecko) draw.io/22.1.16 Chrome/120.0.6099.109 Electron/28.1.0 Safari/537.36" etag="INzxcXBRwYprayUIIgRr" version="22.1.16" type="device">
  <diagram name="Page-1" id="KMcu_oKfEbYgASt595_M">
    <mxGraphModel dx="2448" dy="925" grid="0" gridSize="10" guides="1" tooltips="1" connect="1" arrows="1" fold="1" page="0" pageScale="1" pageWidth="850" pageHeight="1100" math="0" shadow="0">
      <root>
        <mxCell id="0" />
        <mxCell id="1" parent="0" />
        <mxCell id="A3bvXWKKyN5vojqCIZ77-12" value="" style="edgeStyle=none;curved=1;rounded=0;orthogonalLoop=1;jettySize=auto;html=1;fontSize=12;startSize=8;endSize=8;" edge="1" parent="1" source="A3bvXWKKyN5vojqCIZ77-10" target="A3bvXWKKyN5vojqCIZ77-11">
          <mxGeometry relative="1" as="geometry" />
        </mxCell>
        <mxCell id="A3bvXWKKyN5vojqCIZ77-10" value="server startup" style="rounded=1;whiteSpace=wrap;html=1;fontSize=16;" vertex="1" parent="1">
          <mxGeometry x="-536" y="24" width="120" height="60" as="geometry" />
        </mxCell>
        <mxCell id="A3bvXWKKyN5vojqCIZ77-16" value="" style="edgeStyle=none;curved=1;rounded=0;orthogonalLoop=1;jettySize=auto;html=1;fontSize=12;startSize=8;endSize=8;" edge="1" parent="1" source="A3bvXWKKyN5vojqCIZ77-11" target="A3bvXWKKyN5vojqCIZ77-15">
          <mxGeometry relative="1" as="geometry" />
        </mxCell>
        <mxCell id="A3bvXWKKyN5vojqCIZ77-18" value="" style="edgeStyle=none;curved=1;rounded=0;orthogonalLoop=1;jettySize=auto;html=1;fontSize=12;startSize=8;endSize=8;" edge="1" parent="1" source="A3bvXWKKyN5vojqCIZ77-11" target="A3bvXWKKyN5vojqCIZ77-17">
          <mxGeometry relative="1" as="geometry" />
        </mxCell>
        <mxCell id="A3bvXWKKyN5vojqCIZ77-11" value="existing database?" style="rhombus;whiteSpace=wrap;html=1;fontSize=16;rounded=1;" vertex="1" parent="1">
          <mxGeometry x="-268" y="31" width="180" height="154" as="geometry" />
        </mxCell>
        <mxCell id="A3bvXWKKyN5vojqCIZ77-22" value="" style="edgeStyle=none;curved=1;rounded=0;orthogonalLoop=1;jettySize=auto;html=1;fontSize=12;startSize=8;endSize=8;" edge="1" parent="1" source="A3bvXWKKyN5vojqCIZ77-15" target="A3bvXWKKyN5vojqCIZ77-21">
          <mxGeometry relative="1" as="geometry" />
        </mxCell>
        <mxCell id="A3bvXWKKyN5vojqCIZ77-15" value="yes" style="ellipse;whiteSpace=wrap;html=1;fontSize=16;rounded=1;" vertex="1" parent="1">
          <mxGeometry x="133" y="66" width="80" height="80" as="geometry" />
        </mxCell>
        <mxCell id="A3bvXWKKyN5vojqCIZ77-20" value="" style="edgeStyle=none;curved=1;rounded=0;orthogonalLoop=1;jettySize=auto;html=1;fontSize=12;startSize=8;endSize=8;" edge="1" parent="1" source="A3bvXWKKyN5vojqCIZ77-17" target="A3bvXWKKyN5vojqCIZ77-19">
          <mxGeometry relative="1" as="geometry" />
        </mxCell>
        <mxCell id="A3bvXWKKyN5vojqCIZ77-17" value="no" style="ellipse;whiteSpace=wrap;html=1;fontSize=16;rounded=1;" vertex="1" parent="1">
          <mxGeometry x="-237" y="295" width="80" height="80" as="geometry" />
        </mxCell>
        <mxCell id="A3bvXWKKyN5vojqCIZ77-19" value="create database, its tables and secure with perms, etc." style="whiteSpace=wrap;html=1;fontSize=16;rounded=1;" vertex="1" parent="1">
          <mxGeometry x="-19" y="400" width="179" height="104" as="geometry" />
        </mxCell>
        <mxCell id="A3bvXWKKyN5vojqCIZ77-21" value="Listen for incoming connections" style="whiteSpace=wrap;html=1;fontSize=16;rounded=1;" vertex="1" parent="1">
          <mxGeometry x="439" y="241" width="175" height="100" as="geometry" />
        </mxCell>
        <mxCell id="A3bvXWKKyN5vojqCIZ77-23" style="edgeStyle=none;curved=1;rounded=0;orthogonalLoop=1;jettySize=auto;html=1;entryX=0.017;entryY=0.867;entryDx=0;entryDy=0;entryPerimeter=0;fontSize=12;startSize=8;endSize=8;" edge="1" parent="1" source="A3bvXWKKyN5vojqCIZ77-19" target="A3bvXWKKyN5vojqCIZ77-21">
          <mxGeometry relative="1" as="geometry" />
        </mxCell>
      </root>
    </mxGraphModel>
  </diagram>
</mxfile>
